# xmcd
# Track frame offsets:
# 150
# 10455
# 26482
# 39322
# 48502
# 68495
# 80460
# 98090
# 111852
# 124767
# 140882
# 154280
#
# Disc length: 2171 seconds
# Revision: 0
# Processed by: cddbd v1.4PL0 Copyright (c) Steve Scherf et al.
# Submitted via: VisiTrax 2.9.5.180 - For more info visit www.synapsa.com
#
DISCID=9c08790c
DTITLE=Shane Worley - Shotgin House
DYEAR=1999
DGENRE=
TTITLE0=Waltzing Margarita
TTITLE1=Bourbon and tears
TTITLE2=The botlle still loves me
TTITLE3=Shotgun house
TTITLE4=Leave a message
TTITLE5=I'll forget you
TTITLE6=Jones clone's
TTITLE7=The same old song
TTITLE8=This side of heaven
TTITLE9=The night that Ruby fell
TTITLE10=If I ever wanted to cheat
TTITLE11=Things that I do well
EXTD=
EXTT0=
EXTT1=
EXTT2=
EXTT3=
EXTT4=
EXTT5=
EXTT6=
EXTT7=
EXTT8=
EXTT9=
EXTT10=
EXTT11=
PLAYORDER=
